<svg width="44" height="42" viewBox="0 0 44 42" fill="none" xmlns="http://www.w3.org/2000/svg">
<path fill-rule="evenodd" clip-rule="evenodd" d="M31.5238 0.190918H12.2423C5.5868 0.190918 0.191406 5.36689 0.191406 11.7518V30.2491C0.191406 36.634 5.5868 41.81 12.2423 41.81H31.5238C38.1793 41.81 43.5747 36.634 43.5747 30.2491V11.7518C43.5747 5.36689 38.1793 0.190918 31.5238 0.190918ZM39.3569 30.2491C39.3436 34.3939 35.8443 37.751 31.5238 37.7637H12.2423C7.92171 37.751 4.42246 34.3939 4.40923 30.2491V11.7518C4.42246 7.60686 7.92171 4.24991 12.2423 4.23722H31.5238C35.8443 4.24991 39.3436 7.60686 39.3569 11.7518V30.2491ZM33.3314 12.3298C34.6626 12.3298 35.7416 11.2946 35.7416 10.0176C35.7416 8.74067 34.6626 7.70547 33.3314 7.70547C32.0003 7.70547 30.9213 8.74067 30.9213 10.0176C30.9213 11.2946 32.0003 12.3298 33.3314 12.3298ZM21.8831 10.5957C15.8931 10.5957 11.0372 15.2541 11.0372 21.0004C11.0372 26.7469 15.8931 31.4052 21.8831 31.4052C27.8731 31.4052 32.7289 26.7469 32.7289 21.0004C32.7354 18.239 31.5947 15.589 29.5593 13.6364C27.5239 11.6838 24.7615 10.5895 21.8831 10.5957ZM15.2551 21.0004C15.2551 24.5122 18.2225 27.3589 21.8831 27.3589C25.5436 27.3589 28.5111 24.5122 28.5111 21.0004C28.5111 17.4887 25.5436 14.642 21.8831 14.642C18.2225 14.642 15.2551 17.4887 15.2551 21.0004Z" fill="white"/>
</svg>
