<svg width="44" height="42" viewBox="0 0 44 42" fill="none" xmlns="http://www.w3.org/2000/svg">
<path fill-rule="evenodd" clip-rule="evenodd" d="M3.62211 0.190918C1.62544 0.190918 0.00683594 1.7437 0.00683594 3.65917V38.3417C0.00683594 40.2571 1.62544 41.81 3.62211 41.81H39.7749C41.7715 41.81 43.3901 40.2571 43.3901 38.3417V3.65917C43.3901 1.7437 41.7715 0.190918 39.7749 0.190918H3.62211ZM13.3129 9.44589C13.3265 11.6569 11.6013 13.0193 9.55413 13.0095C7.6256 12.9998 5.94449 11.5268 5.95466 9.44915C5.96483 7.49499 7.57476 5.92452 9.66599 5.97005C11.7877 6.01557 13.3265 7.50801 13.3129 9.44589ZM22.3726 15.8253H16.299H16.2956V35.6171H22.7149V35.1553C22.7149 34.2769 22.7141 33.3983 22.7134 32.5194C22.7115 30.1754 22.7093 27.8287 22.7219 25.4854C22.7252 24.9163 22.7522 24.3247 22.9048 23.7815C23.4774 21.7526 25.3791 20.4423 27.5008 20.7644C28.8632 20.969 29.7647 21.7267 30.1443 22.9591C30.3783 23.7295 30.4834 24.5586 30.4935 25.3619C30.521 27.7841 30.5171 30.2063 30.5133 32.6288C30.5118 33.4838 30.5104 34.3394 30.5104 35.1944V35.6138H36.9501V35.1391C36.9501 34.094 36.9497 33.0492 36.9489 32.0043C36.9477 29.3927 36.9463 26.7811 36.9535 24.1686C36.9569 22.9882 36.8248 21.8243 36.5231 20.683C36.0723 18.9856 35.1403 17.581 33.6253 16.5666C32.5508 15.8447 31.3713 15.3798 30.0529 15.3278C29.9028 15.3218 29.7514 15.3139 29.5993 15.3061C28.9252 15.2711 28.24 15.2356 27.5955 15.3603C25.7517 15.7147 24.1318 16.5243 22.9082 17.9516C22.766 18.1153 22.6269 18.2816 22.4194 18.5297L22.3726 18.5858V15.8253ZM6.47008 35.6235H12.8589V15.8381H6.47008V35.6235Z" fill="white"/>
</svg>
