<svg width="109" height="48" viewBox="0 0 109 48" fill="none" xmlns="http://www.w3.org/2000/svg">
<path d="M22.7327 0.0606353C22.0616 0.231354 21.5495 0.492337 20.8882 0.998605C20.1935 1.53431 19.6245 2.14065 18.8513 3.17674C17.3835 5.15864 15.9569 7.76259 14.2753 11.5459C14.0692 12.009 13.8867 12.3896 13.873 12.3896C13.7203 11.9661 13.5822 11.5374 13.4589 11.1044C12.5916 8.2198 11.948 6.34386 11.3102 4.8329C10.3095 2.45266 9.40484 1.25174 8.30791 0.843585C7.80027 0.678267 7.25255 0.68309 6.74789 0.857321C5.63919 1.30865 4.81503 2.50171 4.16159 4.61313C3.13727 7.90191 2.27779 13.5023 1.27309 23.451C0.335114 32.6541 -0.0514581 38.2191 0.00544845 41.6159C0.028996 43.2544 0.0937517 43.9333 0.299793 44.7947C0.666742 46.3489 1.52034 47.1613 2.7036 47.0769C3.01561 47.0514 3.12746 47.018 3.47282 46.8139C3.8123 46.6138 3.95751 46.4803 4.32446 46.0467C5.31345 44.8654 6.23966 42.8678 8.15486 37.7659C8.86913 35.8683 12.0147 27.1754 12.0147 27.1028C12.0147 27.0518 10.6352 22.36 10.4017 21.6084L10.3232 21.3671L10.2565 21.5162C10.1309 21.7968 8.84362 25.3113 7.41507 29.2711C5.45278 34.7106 4.32053 37.7482 3.71811 39.2003L3.52777 39.6693L3.55131 39.1453C3.57094 38.8588 3.60233 38.174 3.62588 37.6285C3.79464 34.1631 4.27344 28.6923 5.00537 21.7968C5.74123 14.8582 6.39468 10.3332 7.05205 7.61542C7.24828 6.80303 7.56224 5.73359 7.62896 5.64529C7.67606 5.5923 8.08617 6.47729 8.42173 7.35443C9.1203 9.1872 9.66975 10.9179 11.3946 16.7224C13.5198 23.8866 14.5873 27.0538 15.9569 30.2641C17.1539 33.0819 18.1233 34.7871 19.3321 36.2215C20.1798 37.2262 20.9804 37.86 21.8713 38.2407C22.3721 38.4659 22.9141 38.5851 23.4632 38.5908C24.0122 38.5966 24.5566 38.4887 25.062 38.2741C27.7798 37.1811 30.0953 33.2644 32.8543 25.0895C33.596 22.8878 34.2102 20.9256 35.5033 16.6125C37.291 10.6373 38.0798 8.27082 38.8392 6.5499C38.9669 6.25273 39.105 5.96017 39.2533 5.67276L39.3651 5.48045L39.4397 5.6963C40.0873 7.49375 40.7407 10.8689 41.3451 15.547C41.9985 20.5547 42.9346 29.9776 43.2838 34.9539C43.3957 36.5591 43.5193 38.8314 43.5134 39.2552V39.5594L43.3682 39.2278C42.9071 38.1799 41.8396 35.3052 39.6399 29.2162C37.9346 24.4989 36.7278 21.2179 36.667 21.1453C36.6454 21.1198 36.6101 21.1728 36.5826 21.2572C35.4563 24.9855 34.9421 26.7064 34.9421 26.7712C34.9421 26.8497 36.8573 32.1792 38.2506 35.9743C39.4397 39.2062 40.5111 41.9416 41.0292 43.0738C41.714 44.573 42.2164 45.4403 42.7717 46.1016C43.0935 46.4823 43.2466 46.6197 43.5821 46.8179C44.3199 47.2358 44.9636 47.1318 45.4855 46.8316C47.1339 45.8603 47.4184 43.0974 46.7807 34.2926C46.4588 29.9187 45.7544 22.6367 45.1441 17.4131C44.1747 9.11656 43.1484 4.37373 41.8867 2.36043C41.3883 1.55982 40.7074 0.986832 40.0461 0.80434C39.6126 0.712526 39.1635 0.723953 38.7352 0.837698C37.0163 1.42246 35.6976 3.87138 33.7177 10.1585C33.4508 11.0102 33.2035 11.799 33.1761 11.9089C33.1447 12.0247 33.1015 12.1188 33.0878 12.1188C33.0681 12.1188 32.9445 11.8638 32.8032 11.5498C30.4465 6.2791 28.4411 2.98836 26.5729 1.32827C26.0274 0.843585 25.1424 0.307883 24.6205 0.143051C24.1397 -0.00608224 23.1703 -0.0492524 22.7327 0.0645599V0.0606353ZM24.071 4.27954C25.4956 5.0252 27.8347 9.09105 30.5898 15.6176L31.4532 17.6584L30.7762 19.8149C29.5223 23.8297 28.7158 26.1472 27.766 28.4136C26.4474 31.5631 25.1836 33.6274 24.2103 34.2181C24.0274 34.319 23.8245 34.3787 23.6161 34.3929C23.4076 34.4071 23.1985 34.3756 23.0035 34.3005C21.4376 33.6431 19.4753 29.9874 17.3502 23.7532C16.7956 22.1206 16.2689 20.4786 15.7705 18.8279L15.5056 17.9606L16.1846 16.3181C18.8219 9.9623 21.1708 5.68846 22.6542 4.52875C23.19 4.11078 23.604 4.03622 24.071 4.27954Z" fill="white"/>
<path d="M66.0177 8.90853C66.0727 8.8425 66.1387 8.80949 66.2158 8.80949H67.4702C67.5803 8.80949 67.6353 8.86451 67.6353 8.97455V20.1989C67.6353 20.3089 67.5803 20.364 67.4702 20.364H66.2158C66.1057 20.364 66.0507 20.3089 66.0507 20.1989V11.7476C66.0507 11.7146 66.0397 11.6926 66.0177 11.6816C65.9957 11.6706 65.9792 11.6816 65.9682 11.7146L63.6077 15.313C63.5637 15.379 63.4977 15.412 63.4097 15.412H62.7824C62.7054 15.412 62.6394 15.379 62.5844 15.313L60.2074 11.7476C60.1964 11.7146 60.1799 11.7036 60.1579 11.7146C60.1359 11.7256 60.1249 11.7476 60.1249 11.7806V20.1989C60.1249 20.3089 60.0699 20.364 59.9598 20.364H58.7054C58.5953 20.364 58.5403 20.3089 58.5403 20.1989V8.97455C58.5403 8.86451 58.5953 8.80949 58.7054 8.80949H59.9598C60.0479 8.80949 60.1139 8.8425 60.1579 8.90853L63.0465 13.2332C63.0575 13.2442 63.074 13.2497 63.096 13.2497C63.1181 13.2497 63.1346 13.2442 63.1456 13.2332L66.0177 8.90853ZM73.575 20.496C72.7607 20.496 72.0509 20.2924 71.4457 19.8853C70.8405 19.4671 70.4168 18.8894 70.1747 18.1521C69.9766 17.5579 69.8776 16.8866 69.8776 16.1383C69.8776 15.357 69.9711 14.6968 70.1582 14.1576C70.4003 13.4313 70.824 12.8646 71.4292 12.4574C72.0344 12.0392 72.7552 11.8302 73.5915 11.8302C74.3838 11.8302 75.0716 12.0392 75.6548 12.4574C76.249 12.8646 76.6727 13.4258 76.9258 14.1411C77.1239 14.7023 77.2229 15.3625 77.2229 16.1218C77.2229 16.8921 77.1239 17.5689 76.9258 18.1521C76.6837 18.8894 76.2656 19.4671 75.6713 19.8853C75.0771 20.2924 74.3783 20.496 73.575 20.496ZM73.575 19.126C74.0152 19.126 74.4003 19.0049 74.7305 18.7628C75.0606 18.5097 75.2972 18.1576 75.4402 17.7064C75.5613 17.2883 75.6218 16.7711 75.6218 16.1548C75.6218 15.5386 75.5668 15.0269 75.4567 14.6197C75.3137 14.1686 75.0771 13.8219 74.747 13.5798C74.4168 13.3267 74.0152 13.2002 73.542 13.2002C73.0908 13.2002 72.7002 13.3267 72.3701 13.5798C72.0399 13.8219 71.8033 14.1686 71.6603 14.6197C71.5392 15.0049 71.4787 15.5166 71.4787 16.1548C71.4787 16.7931 71.5392 17.3103 71.6603 17.7064C71.7923 18.1576 72.0234 18.5097 72.3535 18.7628C72.6947 19.0049 73.1018 19.126 73.575 19.126ZM81.1226 20.364C81.0235 20.364 80.9575 20.3199 80.9245 20.2319L78.2339 12.1438L78.2174 12.0778C78.2174 12.0007 78.267 11.9622 78.366 11.9622H79.7525C79.8516 11.9622 79.9176 12.0062 79.9506 12.0943L81.7663 18.0696C81.7773 18.0916 81.7938 18.1026 81.8158 18.1026C81.8378 18.1026 81.8543 18.0916 81.8653 18.0696L83.6645 12.0943C83.6976 12.0062 83.7636 11.9622 83.8626 11.9622L85.2492 11.9787C85.3702 11.9787 85.4142 12.0392 85.3812 12.1603L82.7072 20.2319C82.6742 20.3199 82.6081 20.364 82.5091 20.364H81.1226ZM87.9762 10.6417C87.6681 10.6417 87.415 10.5427 87.2169 10.3446C87.0188 10.1465 86.9198 9.89341 86.9198 9.58529C86.9198 9.27717 87.0188 9.02407 87.2169 8.826C87.415 8.62792 87.6681 8.52888 87.9762 8.52888C88.2843 8.52888 88.5374 8.62792 88.7355 8.826C88.9336 9.02407 89.0326 9.27717 89.0326 9.58529C89.0326 9.89341 88.9336 10.1465 88.7355 10.3446C88.5374 10.5427 88.2843 10.6417 87.9762 10.6417ZM87.3159 20.3474C87.2059 20.3474 87.1509 20.2924 87.1509 20.1824V12.1273C87.1509 12.0172 87.2059 11.9622 87.3159 11.9622H88.5704C88.6805 11.9622 88.7355 12.0172 88.7355 12.1273V20.1824C88.7355 20.2924 88.6805 20.3474 88.5704 20.3474H87.3159ZM98.0266 15.1149C98.0706 15.5661 98.0872 16.0723 98.0761 16.6335C98.0761 16.7436 98.0211 16.7986 97.9111 16.7986H92.6456C92.6015 16.7986 92.5795 16.8206 92.5795 16.8646C92.5795 17.2387 92.6125 17.5249 92.6786 17.7229C92.7996 18.1631 93.0417 18.5097 93.4048 18.7628C93.779 19.0049 94.2467 19.126 94.8079 19.126C95.6222 19.126 96.2494 18.7903 96.6896 18.1191C96.7446 18.009 96.8162 17.9925 96.9042 18.0696L97.8451 18.6968C97.9221 18.7628 97.9386 18.8344 97.8946 18.9114C97.5865 19.4066 97.1463 19.7972 96.5741 20.0833C96.0129 20.3695 95.3746 20.5125 94.6593 20.5125C93.856 20.5125 93.1793 20.3364 92.629 19.9843C92.0788 19.6322 91.6662 19.1315 91.3911 18.4822C91.127 17.833 90.9949 17.0462 90.9949 16.1218C90.9949 15.3185 91.0554 14.7078 91.1765 14.2896C91.3746 13.5303 91.7707 12.9306 92.3649 12.4904C92.9592 12.0502 93.68 11.8302 94.5273 11.8302C95.6387 11.8302 96.4695 12.1108 97.0197 12.672C97.57 13.2222 97.9056 14.0365 98.0266 15.1149ZM94.5273 13.2002C94.0541 13.2002 93.6634 13.3212 93.3553 13.5633C93.0472 13.7944 92.8381 14.108 92.7281 14.5042C92.6511 14.7463 92.6015 15.0544 92.5795 15.4285C92.5795 15.4726 92.6015 15.4946 92.6456 15.4946H96.4255C96.4695 15.4946 96.4915 15.4726 96.4915 15.4285C96.4695 15.0654 96.4365 14.7958 96.3925 14.6197C96.2825 14.1906 96.0624 13.8494 95.7322 13.5963C95.4131 13.3322 95.0115 13.2002 94.5273 13.2002ZM65.1263 40.364C65.0383 40.364 64.9778 40.3254 64.9448 40.2484L62.6339 35.313C62.6229 35.28 62.6009 35.2635 62.5678 35.2635H60.1909C60.1469 35.2635 60.1249 35.2855 60.1249 35.3295V40.1989C60.1249 40.3089 60.0699 40.364 59.9598 40.364H58.7054C58.5953 40.364 58.5403 40.3089 58.5403 40.1989V28.9746C58.5403 28.8645 58.5953 28.8095 58.7054 28.8095H63.1456C63.8058 28.8095 64.3835 28.947 64.8787 29.2222C65.3849 29.4973 65.7756 29.8824 66.0507 30.3776C66.3258 30.8728 66.4633 31.445 66.4633 32.0943C66.4633 32.8646 66.2598 33.5193 65.8526 34.0585C65.4565 34.5867 64.9007 34.9444 64.1855 35.1314C64.1415 35.1534 64.1304 35.181 64.1525 35.214L66.5459 40.1659C66.5569 40.1879 66.5624 40.2154 66.5624 40.2484C66.5624 40.3254 66.5184 40.364 66.4303 40.364H65.1263ZM60.1909 30.1795C60.1469 30.1795 60.1249 30.2015 60.1249 30.2455V33.943C60.1249 33.987 60.1469 34.009 60.1909 34.009H62.9475C63.5307 34.009 63.9984 33.8384 64.3505 33.4973C64.7027 33.1452 64.8787 32.683 64.8787 32.1108C64.8787 31.5275 64.7027 31.0599 64.3505 30.7077C63.9984 30.3556 63.5307 30.1795 62.9475 30.1795H60.1909ZM71.5354 31.8302C72.2067 31.8302 72.7899 31.9512 73.2851 32.1933C73.7913 32.4244 74.1765 32.7545 74.4406 33.1837C74.7157 33.6018 74.8532 34.0805 74.8532 34.6197V40.1989C74.8532 40.3089 74.7982 40.364 74.6882 40.364H73.4337C73.3236 40.364 73.2686 40.3089 73.2686 40.1989V39.6047C73.2686 39.5496 73.2411 39.5386 73.1861 39.5716C72.9 39.8688 72.5478 40.0999 72.1297 40.2649C71.7225 40.419 71.2658 40.496 70.7596 40.496C69.9453 40.496 69.2686 40.2924 68.7294 39.8853C68.2012 39.4671 67.9371 38.8399 67.9371 38.0035C67.9371 37.1452 68.2342 36.474 68.8284 35.9898C69.4336 35.4946 70.2755 35.247 71.3539 35.247H73.2026C73.2466 35.247 73.2686 35.225 73.2686 35.181V34.7353C73.2686 34.2511 73.1256 33.8769 72.8395 33.6128C72.5643 33.3377 72.1407 33.2002 71.5685 33.2002C71.1063 33.2002 70.7266 33.2937 70.4295 33.4808C70.1434 33.6569 69.9673 33.899 69.9013 34.2071C69.8683 34.3171 69.8023 34.3666 69.7032 34.3556L68.3662 34.1741C68.2562 34.1521 68.2067 34.108 68.2177 34.042C68.3057 33.3928 68.6523 32.8646 69.2576 32.4574C69.8628 32.0392 70.6221 31.8302 71.5354 31.8302ZM71.1063 39.159C71.6895 39.159 72.1957 39.0049 72.6249 38.6968C73.054 38.3887 73.2686 37.998 73.2686 37.5249V36.551C73.2686 36.507 73.2466 36.485 73.2026 36.485H71.651C71.0017 36.485 70.4845 36.6115 70.0994 36.8646C69.7142 37.1177 69.5217 37.4698 69.5217 37.921C69.5217 38.3282 69.6647 38.6363 69.9508 38.8454C70.248 39.0544 70.6331 39.159 71.1063 39.159ZM80.7394 31.8467C81.6418 31.8467 82.3571 32.1108 82.8853 32.639C83.4135 33.1562 83.6776 33.8604 83.6776 34.7518V40.1989C83.6776 40.3089 83.6225 40.364 83.5125 40.364H82.258C82.148 40.364 82.0929 40.3089 82.0929 40.1989V35.0654C82.0929 34.5152 81.9334 34.0695 81.6143 33.7284C81.2951 33.3873 80.8715 33.2167 80.3433 33.2167C79.8261 33.2167 79.4024 33.3873 79.0723 33.7284C78.7422 34.0695 78.5771 34.5097 78.5771 35.0489V40.1989C78.5771 40.3089 78.5221 40.364 78.412 40.364H77.1575C77.0475 40.364 76.9925 40.3089 76.9925 40.1989V32.1273C76.9925 32.0172 77.0475 31.9622 77.1575 31.9622H78.412C78.5221 31.9622 78.5771 32.0172 78.5771 32.1273V32.7215C78.5771 32.7435 78.5826 32.76 78.5936 32.771C78.6156 32.782 78.6321 32.7765 78.6431 32.7545C79.1163 32.1493 79.8151 31.8467 80.7394 31.8467ZM86.0877 40.364C85.9777 40.364 85.9227 40.3089 85.9227 40.1989V28.9746C85.9227 28.8645 85.9777 28.8095 86.0877 28.8095H87.3422C87.4523 28.8095 87.5073 28.8645 87.5073 28.9746V35.3295C87.5073 35.3515 87.5183 35.368 87.5403 35.379C87.5623 35.39 87.5788 35.3845 87.5898 35.3625L90.6435 32.0447C90.6875 31.9897 90.7536 31.9622 90.8416 31.9622H92.3107C92.3767 31.9622 92.4152 31.9842 92.4262 32.0282C92.4482 32.0612 92.4372 32.1053 92.3932 32.1603L90.2639 34.6197C90.2419 34.6638 90.2364 34.6968 90.2474 34.7188L92.7728 40.1659L92.7893 40.2319C92.7893 40.3199 92.7398 40.364 92.6408 40.364H91.3203C91.2322 40.364 91.1717 40.3199 91.1387 40.2319L89.1744 35.7422C89.1524 35.6871 89.1249 35.6816 89.0919 35.7257L87.5403 37.4423C87.5183 37.4863 87.5073 37.5139 87.5073 37.5249V40.1989C87.5073 40.3089 87.4523 40.364 87.3422 40.364H86.0877ZM100.686 35.1149C100.73 35.5661 100.747 36.0723 100.736 36.6335C100.736 36.7436 100.681 36.7986 100.571 36.7986H95.3053C95.2613 36.7986 95.2392 36.8206 95.2392 36.8646C95.2392 37.2387 95.2723 37.5249 95.3383 37.7229C95.4593 38.1631 95.7014 38.5097 96.0646 38.7628C96.4387 39.0049 96.9064 39.126 97.4676 39.126C98.2819 39.126 98.9092 38.7903 99.3493 38.1191C99.4044 38.009 99.4759 37.9925 99.5639 38.0696L100.505 38.6968C100.582 38.7628 100.598 38.8344 100.554 38.9114C100.246 39.4066 99.806 39.7972 99.2338 40.0833C98.6726 40.3695 98.0343 40.5125 97.319 40.5125C96.5157 40.5125 95.839 40.3364 95.2888 39.9843C94.7385 39.6322 94.3259 39.1315 94.0508 38.4822C93.7867 37.833 93.6546 37.0462 93.6546 36.1218C93.6546 35.3185 93.7152 34.7078 93.8362 34.2896C94.0343 33.5303 94.4304 32.9306 95.0247 32.4904C95.6189 32.0502 96.3397 31.8302 97.187 31.8302C98.2984 31.8302 99.1292 32.1108 99.6795 32.672C100.23 33.2222 100.565 34.0365 100.686 35.1149ZM97.187 33.2002C96.7138 33.2002 96.3232 33.3212 96.015 33.5633C95.7069 33.7944 95.4978 34.108 95.3878 34.5042C95.3108 34.7463 95.2613 35.0544 95.2392 35.4285C95.2392 35.4726 95.2613 35.4946 95.3053 35.4946H99.0852C99.1292 35.4946 99.1513 35.4726 99.1513 35.4285C99.1292 35.0654 99.0962 34.7958 99.0522 34.6197C98.9422 34.1906 98.7221 33.8494 98.392 33.5963C98.0728 33.3322 97.6712 33.2002 97.187 33.2002ZM106.416 31.8797C106.768 31.8797 107.088 31.9512 107.374 32.0943C107.451 32.1273 107.478 32.1933 107.456 32.2923L107.192 33.5303C107.181 33.6294 107.115 33.6624 106.994 33.6294C106.807 33.5523 106.587 33.5138 106.334 33.5138L106.103 33.5303C105.585 33.5523 105.156 33.7339 104.815 34.075C104.485 34.4052 104.32 34.8398 104.32 35.379V40.1989C104.32 40.3089 104.265 40.364 104.155 40.364H102.9C102.79 40.364 102.735 40.3089 102.735 40.1989V32.1273C102.735 32.0172 102.79 31.9622 102.9 31.9622H104.155C104.265 31.9622 104.32 32.0172 104.32 32.1273V33.0021C104.32 33.0351 104.325 33.0571 104.336 33.0681C104.358 33.0681 104.375 33.0571 104.386 33.0351C104.881 32.2648 105.558 31.8797 106.416 31.8797Z" fill="white"/>
</svg>
