<svg width="41" height="41" viewBox="0 0 41 41" fill="none" xmlns="http://www.w3.org/2000/svg">
<path d="M13.1786 30.7497C12.7903 30.7497 12.4178 30.5954 12.1432 30.3208C11.8686 30.0462 11.7144 29.6738 11.7144 29.2854V11.714C11.7145 11.4645 11.7784 11.2192 11.8999 11.0013C12.0215 10.7834 12.1967 10.6002 12.409 10.4691C12.6213 10.3379 12.8635 10.2632 13.1128 10.252C13.362 10.2407 13.61 10.2934 13.8332 10.4049L31.4046 19.1906C31.6475 19.3124 31.8517 19.4993 31.9945 19.7305C32.1372 19.9617 32.2128 20.228 32.2128 20.4997C32.2128 20.7714 32.1372 21.0377 31.9945 21.2689C31.8517 21.5001 31.6475 21.687 31.4046 21.8088L13.8332 30.5945C13.63 30.6963 13.4059 30.7495 13.1786 30.7497ZM14.6429 14.0832V26.9162L27.4759 20.4997L14.6429 14.0832Z" fill="white"/>
<path d="M20.5 2.92857C23.9753 2.92857 27.3726 3.95912 30.2622 5.88989C33.1518 7.82066 35.4039 10.5649 36.7339 13.7757C38.0638 16.9865 38.4118 20.5195 37.7338 23.928C37.0558 27.3365 35.3823 30.4675 32.9249 32.9249C30.4675 35.3823 27.3365 37.0558 23.928 37.7338C20.5195 38.4118 16.9865 38.0638 13.7757 36.7339C10.565 35.4039 7.82067 33.1518 5.8899 30.2622C3.95913 27.3726 2.92858 23.9753 2.92858 20.5C2.92858 15.8398 4.77985 11.3704 8.07513 8.07512C11.3704 4.77984 15.8398 2.92857 20.5 2.92857ZM20.5 0C16.4455 0 12.482 1.2023 9.11082 3.45487C5.73961 5.70744 3.11207 8.9091 1.56048 12.655C0.0088823 16.4009 -0.397086 20.5227 0.393911 24.4993C1.18491 28.476 3.13734 32.1287 6.00432 34.9957C8.87129 37.8627 12.524 39.8151 16.5007 40.6061C20.4773 41.3971 24.5991 40.9911 28.345 39.4395C32.0909 37.8879 35.2926 35.2604 37.5451 31.8892C39.7977 28.518 41 24.5545 41 20.5C41 15.0631 38.8402 9.8488 34.9957 6.00431C31.1512 2.15981 25.9369 0 20.5 0Z" fill="white"/>
</svg>
