<svg width="43" height="58" viewBox="0 0 43 58" fill="none" xmlns="http://www.w3.org/2000/svg">
<path d="M0 3.90957C0 1.75037 1.75038 0 3.90957 0H39.0958C41.255 0 43.0053 1.75038 43.0053 3.90957V55.8297C43.0053 56.4073 42.4006 56.7855 41.8812 56.5327L21.8448 46.7817C21.6288 46.6766 21.3765 46.6766 21.1605 46.7817L1.12408 56.5327C0.604712 56.7855 0 56.4073 0 55.8297V3.90957Z" fill="#1B1B1B"/>
<path d="M7.40745 19.4521V16.1994H13.913V39H10.3162V19.4521H7.40745ZM18.8112 27.3026C18.8112 23.6953 19.4159 20.8804 20.6252 18.8579C21.8554 16.8145 23.9614 15.7928 26.9431 15.7928C29.9248 15.7928 32.0203 16.8145 33.2297 18.8579C34.4599 20.8804 35.075 23.6953 35.075 27.3026C35.075 30.9515 34.4599 33.8081 33.2297 35.8723C32.0203 37.9157 29.9248 38.9374 26.9431 38.9374C23.9614 38.9374 21.8554 37.9157 20.6252 35.8723C19.4159 33.8081 18.8112 30.9515 18.8112 27.3026ZM31.572 27.3026C31.572 25.6136 31.4574 24.1853 31.228 23.0177C31.0195 21.85 30.5816 20.9013 29.9144 20.1715C29.2471 19.4209 28.2567 19.0455 26.9431 19.0455C25.6295 19.0455 24.6391 19.4209 23.9718 20.1715C23.3046 20.9013 22.8563 21.85 22.6269 23.0177C22.4184 24.1853 22.3142 25.6136 22.3142 27.3026C22.3142 29.054 22.4184 30.524 22.6269 31.7126C22.8354 32.9011 23.2733 33.8602 23.9405 34.59C24.6286 35.3198 25.6295 35.6847 26.9431 35.6847C28.2567 35.6847 29.2471 35.3198 29.9144 34.59C30.6025 33.8602 31.0508 32.9011 31.2593 31.7126C31.4678 30.524 31.572 29.054 31.572 27.3026Z" fill="white"/>
</svg>
