<svg width="43" height="58" viewBox="0 0 43 58" fill="none" xmlns="http://www.w3.org/2000/svg">
<path d="M0 3.90957C0 1.75037 1.75038 0 3.90957 0H39.0958C41.255 0 43.0053 1.75038 43.0053 3.90957V55.8297C43.0053 56.4073 42.4006 56.7855 41.8812 56.5327L21.8448 46.7817C21.6288 46.6766 21.3765 46.6766 21.1605 46.7817L1.12408 56.5327C0.604712 56.7855 0 56.4073 0 55.8297V3.90957Z" fill="#1B1B1B"/>
<path d="M15.847 34.1521C17.8487 32.4215 19.423 31.0036 20.5698 29.8985C21.7374 28.7726 22.707 27.6049 23.4785 26.3955C24.25 25.1862 24.6357 23.9768 24.6357 22.7674C24.6357 21.5164 24.3334 20.5364 23.7287 19.8274C23.1449 19.1185 22.217 18.764 20.9451 18.764C19.7149 18.764 18.7557 19.1602 18.0677 19.9526C17.4004 20.724 17.046 21.7666 17.0043 23.0802H13.5638C13.6264 20.7032 14.3353 18.8891 15.6906 17.6381C17.0668 16.3662 18.8079 15.7302 20.9138 15.7302C23.1866 15.7302 24.9589 16.3557 26.2309 17.6068C27.5236 18.8579 28.17 20.526 28.17 22.6111C28.17 24.1123 27.7843 25.5615 27.0128 26.9585C26.2621 28.3347 25.3551 29.5753 24.2917 30.6804C23.2491 31.7647 21.9147 33.0262 20.2883 34.4649L18.8809 35.716H28.7955V38.6872H13.5951V36.0913L15.847 34.1521Z" fill="white"/>
</svg>
