<svg width="43" height="58" viewBox="0 0 43 58" fill="none" xmlns="http://www.w3.org/2000/svg">
<path d="M0 3.90957C0 1.75037 1.75038 0 3.90957 0H39.0958C41.255 0 43.0053 1.75038 43.0053 3.90957V55.8297C43.0053 56.4073 42.4006 56.7855 41.8812 56.5327L21.8448 46.7817C21.6288 46.6766 21.3765 46.6766 21.1605 46.7817L1.12408 56.5327C0.604712 56.7855 0 56.4073 0 55.8297V3.90957Z" fill="#1B1B1B"/>
<path d="M13.814 21.8291C13.9391 19.89 14.6794 18.3783 16.0347 17.294C17.4109 16.2098 19.1623 15.6677 21.2891 15.6677C22.7487 15.6677 24.0102 15.9283 25.0736 16.4496C26.137 16.9708 26.9398 17.6798 27.4819 18.5764C28.024 19.473 28.2951 20.4843 28.2951 21.6102C28.2951 22.903 27.9511 24.0081 27.263 24.9255C26.5749 25.843 25.7513 26.4581 24.7921 26.7708V26.896C26.0223 27.2713 26.9815 27.9594 27.6696 28.9602C28.3577 29.9402 28.7017 31.2017 28.7017 32.7447C28.7017 33.9749 28.4202 35.0696 27.8572 36.0287C27.2943 36.9879 26.4602 37.7489 25.3551 38.3119C24.25 38.854 22.926 39.1251 21.383 39.1251C19.1311 39.1251 17.2753 38.5517 15.8157 37.4049C14.377 36.2372 13.6055 34.5691 13.5013 32.4006H16.9417C17.0251 33.5057 17.4526 34.4128 18.224 35.1217C18.9955 35.8098 20.0381 36.1538 21.3517 36.1538C22.6236 36.1538 23.6036 35.8098 24.2917 35.1217C24.9798 34.4128 25.3238 33.5057 25.3238 32.4006C25.3238 30.9411 24.8547 29.9089 23.9164 29.3043C22.9989 28.6787 21.5811 28.366 19.6628 28.366H18.8496V25.426H19.694C21.383 25.4051 22.6653 25.1236 23.5411 24.5815C24.4377 24.0394 24.886 23.1845 24.886 22.0168C24.886 21.016 24.5628 20.2236 23.9164 19.6398C23.27 19.0351 22.3526 18.7328 21.164 18.7328C19.9964 18.7328 19.0894 19.0351 18.443 19.6398C17.7966 20.2236 17.4109 20.9534 17.2857 21.8291H13.814Z" fill="white"/>
</svg>
