<svg width="43" height="58" viewBox="0 0 43 58" fill="none" xmlns="http://www.w3.org/2000/svg">
<path d="M0 3.90957C0 1.75037 1.75038 0 3.90957 0H39.0958C41.255 0 43.0053 1.75038 43.0053 3.90957V55.8297C43.0053 56.4073 42.4006 56.7855 41.8812 56.5327L21.8448 46.7817C21.6288 46.6766 21.3765 46.6766 21.1605 46.7817L1.12408 56.5327C0.604712 56.7855 0 56.4073 0 55.8297V3.90957Z" fill="#1B1B1B"/>
<path d="M12.4387 34.246V31.5562L22.9477 16.4808H27.2638V31.1496H30.1726V34.246H27.2638V39H23.7609V34.246H12.4387ZM23.9172 20.1089L16.536 31.1496H23.9172V20.1089Z" fill="white"/>
</svg>
