<svg width="43" height="58" viewBox="0 0 43 58" fill="none" xmlns="http://www.w3.org/2000/svg">
<path d="M0 3.90957C0 1.75037 1.75038 0 3.90957 0H39.0958C41.255 0 43.0053 1.75038 43.0053 3.90957V55.8297C43.0053 56.4073 42.4006 56.7855 41.8812 56.5327L21.8448 46.7817C21.6288 46.6766 21.3765 46.6766 21.1605 46.7817L1.12408 56.5327C0.604712 56.7855 0 56.4073 0 55.8297V3.90957Z" fill="#1B1B1B"/>
<path d="M27.5766 19.2645H17.0989V25.4885C17.5368 24.9047 18.1832 24.4147 19.0381 24.0185C19.9138 23.6223 20.8417 23.4243 21.8217 23.4243C23.5732 23.4243 24.9911 23.7996 26.0753 24.5502C27.1804 25.3009 27.9623 26.2496 28.4211 27.3964C28.9006 28.5432 29.1404 29.7526 29.1404 31.0245C29.1404 32.5674 28.8381 33.9436 28.2334 35.153C27.6496 36.3415 26.7634 37.2798 25.5749 37.9679C24.4072 38.656 22.9685 39 21.2587 39C18.986 39 17.1615 38.437 15.7853 37.3111C14.4091 36.1851 13.5855 34.6943 13.3145 32.8385H16.7862C17.0155 33.8185 17.5264 34.6004 18.3187 35.1843C19.1111 35.7472 20.1015 36.0287 21.29 36.0287C22.7704 36.0287 23.8755 35.5804 24.6053 34.6838C25.356 33.7872 25.7313 32.5987 25.7313 31.1183C25.7313 29.617 25.356 28.4702 24.6053 27.6779C23.8547 26.8647 22.7496 26.4581 21.29 26.4581C20.2683 26.4581 19.403 26.7187 18.694 27.24C18.006 27.7404 17.5055 28.4285 17.1928 29.3043H13.8149V16.1368H27.5766V19.2645Z" fill="white"/>
</svg>
