<svg width="43" height="58" viewBox="0 0 43 58" fill="none" xmlns="http://www.w3.org/2000/svg">
<path d="M0 3.90957C0 1.75037 1.75038 0 3.90957 0H39.0958C41.255 0 43.0053 1.75038 43.0053 3.90957V55.8297C43.0053 56.4073 42.4006 56.7855 41.8812 56.5327L21.8448 46.7817C21.6288 46.6766 21.3765 46.6766 21.1605 46.7817L1.12408 56.5327C0.604712 56.7855 0 56.4073 0 55.8297V3.90957Z" fill="#1B1B1B"/>
<path d="M25.137 21.4851C24.9077 20.526 24.4906 19.8066 23.886 19.327C23.2813 18.8474 22.4368 18.6077 21.3526 18.6077C19.7053 18.6077 18.4751 19.2436 17.6619 20.5155C16.8487 21.7666 16.4213 23.8517 16.3796 26.7708C16.9217 25.8534 17.714 25.1445 18.7566 24.644C19.7991 24.1436 20.9251 23.8934 22.1345 23.8934C23.5106 23.8934 24.72 24.1957 25.7626 24.8004C26.826 25.3843 27.6496 26.2391 28.2334 27.3651C28.8381 28.4911 29.1404 29.836 29.1404 31.3998C29.1404 32.8594 28.8485 34.1626 28.2647 35.3094C27.7017 36.4562 26.8572 37.3632 25.7313 38.0304C24.6053 38.6768 23.25 39 21.6653 39C19.5177 39 17.8287 38.5309 16.5985 37.5926C15.3891 36.6334 14.5343 35.2885 14.0338 33.5579C13.5543 31.8272 13.3145 29.6691 13.3145 27.0836C13.3145 19.4521 16.0043 15.6364 21.3838 15.6364C23.4689 15.6364 25.1057 16.1994 26.2943 17.3253C27.5036 18.4513 28.2126 19.8379 28.4211 21.4851H25.137ZM21.3526 26.896C20.0806 26.896 18.9964 27.2817 18.0998 28.0532C17.224 28.8038 16.7862 29.8985 16.7862 31.3372C16.7862 32.776 17.1928 33.9228 18.006 34.7777C18.84 35.6117 19.9972 36.0287 21.4777 36.0287C22.7913 36.0287 23.8234 35.6221 24.574 34.8089C25.3455 33.9957 25.7313 32.9115 25.7313 31.5562C25.7313 30.1383 25.356 29.0123 24.6053 28.1783C23.8755 27.3234 22.7913 26.896 21.3526 26.896Z" fill="white"/>
</svg>
