<svg width="43" height="58" viewBox="0 0 43 58" fill="none" xmlns="http://www.w3.org/2000/svg">
<path d="M0 3.90957C0 1.75037 1.75038 0 3.90957 0H39.0958C41.255 0 43.0053 1.75038 43.0053 3.90957V55.8297C43.0053 56.4073 42.4006 56.7855 41.8812 56.5327L21.8448 46.7817C21.6288 46.6766 21.3765 46.6766 21.1605 46.7817L1.12408 56.5327C0.604712 56.7855 0 56.4073 0 55.8297V3.90957Z" fill="#1B1B1B"/>
<path d="M18.7236 27.0836C16.5551 25.9994 15.4709 24.2896 15.4709 21.9543C15.4709 20.8283 15.7523 19.7962 16.3153 18.8579C16.8783 17.9196 17.7228 17.1794 18.8487 16.6372C19.9747 16.0743 21.3509 15.7928 22.9772 15.7928C24.5828 15.7928 25.9485 16.0743 27.0745 16.6372C28.2213 17.1794 29.0762 17.9196 29.6391 18.8579C30.2021 19.7962 30.4836 20.8283 30.4836 21.9543C30.4836 23.1219 30.1813 24.154 29.5766 25.0506C28.9928 25.9264 28.2109 26.604 27.2309 27.0836C28.4194 27.5215 29.3577 28.2409 30.0457 29.2417C30.7338 30.2217 31.0779 31.3789 31.0779 32.7134C31.0779 34.0687 30.7338 35.2677 30.0457 36.3102C29.3577 37.3528 28.3985 38.1555 27.1683 38.7185C25.9381 39.2815 24.5411 39.563 22.9772 39.563C21.4134 39.563 20.0164 39.2815 18.7862 38.7185C17.5768 38.1555 16.6281 37.3528 15.94 36.3102C15.2519 35.2677 14.9079 34.0687 14.9079 32.7134C14.9079 31.3581 15.2519 30.1904 15.94 29.2104C16.6281 28.2304 17.556 27.5215 18.7236 27.0836ZM27.0745 22.3921C27.0745 21.2245 26.7096 20.3279 25.9798 19.7023C25.25 19.0768 24.2491 18.764 22.9772 18.764C21.7262 18.764 20.7357 19.0768 20.006 19.7023C19.2762 20.3279 18.9113 21.2349 18.9113 22.4234C18.9113 23.466 19.2866 24.3209 20.0372 24.9881C20.8087 25.6345 21.7887 25.9577 22.9772 25.9577C24.1657 25.9577 25.1457 25.624 25.9172 24.9568C26.6887 24.2896 27.0745 23.4347 27.0745 22.3921ZM22.9772 28.6474C21.6011 28.6474 20.4751 28.9915 19.5994 29.6796C18.7445 30.3468 18.317 31.3164 18.317 32.5883C18.317 33.7768 18.734 34.7464 19.5681 35.497C20.4021 36.2268 21.5385 36.5917 22.9772 36.5917C24.3951 36.5917 25.5106 36.2164 26.3238 35.4657C27.1579 34.7151 27.5749 33.756 27.5749 32.5883C27.5749 31.3372 27.1474 30.3677 26.2926 29.6796C25.4585 28.9915 24.3534 28.6474 22.9772 28.6474Z" fill="white"/>
</svg>
