<svg width="43" height="58" viewBox="0 0 43 58" fill="none" xmlns="http://www.w3.org/2000/svg">
<path d="M0 3.90957C0 1.75037 1.75038 0 3.90957 0H39.0958C41.255 0 43.0053 1.75038 43.0053 3.90957V55.8297C43.0053 56.4073 42.4006 56.7855 41.8812 56.5327L21.8448 46.7817C21.6288 46.6766 21.3765 46.6766 21.1605 46.7817L1.12408 56.5327C0.604712 56.7855 0 56.4073 0 55.8297V3.90957Z" fill="#1B1B1B"/>
<path d="M18.3179 32.8072C18.5264 33.8498 18.9747 34.6421 19.6628 35.1843C20.3509 35.7264 21.2787 35.9974 22.4464 35.9974C23.9268 35.9974 25.0111 35.4136 25.6991 34.246C26.3872 33.0783 26.7313 31.087 26.7313 28.2721C26.2309 28.9811 25.5219 29.5336 24.6045 29.9298C23.7079 30.3051 22.7279 30.4928 21.6645 30.4928C20.3091 30.4928 19.0789 30.2217 17.9738 29.6796C16.8687 29.1166 15.993 28.293 15.3466 27.2087C14.7211 26.1036 14.4083 24.7691 14.4083 23.2053C14.4083 20.9117 15.0755 19.0872 16.41 17.7319C17.7653 16.3557 19.6211 15.6677 21.9772 15.6677C24.813 15.6677 26.8251 16.6164 28.0136 18.5138C29.223 20.3904 29.8277 23.2783 29.8277 27.1774C29.8277 29.8672 29.5983 32.067 29.1396 33.7768C28.7017 35.4866 27.9302 36.7794 26.8251 37.6551C25.72 38.5309 24.1874 38.9687 22.2274 38.9687C19.9964 38.9687 18.2762 38.3849 17.0668 37.2172C15.8574 36.0496 15.1798 34.5796 15.0338 32.8072H18.3179ZM22.29 27.4902C23.5411 27.4902 24.5211 27.1045 25.23 26.333C25.9598 25.5406 26.3247 24.4981 26.3247 23.2053C26.3247 21.7666 25.9389 20.6511 25.1674 19.8587C24.4168 19.0455 23.3847 18.6389 22.0711 18.6389C20.7574 18.6389 19.7149 19.056 18.9434 19.89C18.1928 20.7032 17.8174 21.777 17.8174 23.1115C17.8174 24.3834 18.1823 25.4364 18.9121 26.2704C19.6628 27.0836 20.7887 27.4902 22.29 27.4902Z" fill="white"/>
</svg>
