<svg width="45" height="45" viewBox="0 0 45 45" fill="none" xmlns="http://www.w3.org/2000/svg">
<path d="M40.5 22.5C40.5 27.2739 38.6036 31.8523 35.2279 35.2279C31.8523 38.6036 27.2739 40.5 22.5 40.5C17.7261 40.5 13.1477 38.6036 9.77208 35.2279C6.39642 31.8523 4.5 27.2739 4.5 22.5C4.5 17.7261 6.39642 13.1477 9.77208 9.77208C13.1477 6.39642 17.7261 4.5 22.5 4.5C27.2739 4.5 31.8523 6.39642 35.2279 9.77208C38.6036 13.1477 40.5 17.7261 40.5 22.5ZM22.5 45C34.9267 45 45 34.9267 45 22.5C45 10.0733 34.9267 0 22.5 0C10.0733 0 0 10.0733 0 22.5C0 34.9267 10.0733 45 22.5 45ZM23.3055 16.6095C21.1185 17.52 16.7452 19.4048 10.1857 22.2638C9.11925 22.6868 8.56125 23.1007 8.51175 23.5057C8.42625 24.1897 9.2835 24.4598 10.4512 24.8265L10.9417 24.984C12.0892 25.3575 13.6373 25.794 14.4405 25.812C15.1695 25.827 15.9825 25.527 16.8795 24.912C23.0085 20.772 26.172 18.6802 26.37 18.6367C26.5118 18.6052 26.7053 18.5648 26.8358 18.6818C26.9685 18.7988 26.955 19.0192 26.9415 19.08C26.856 19.4422 23.49 22.572 21.7485 24.1898C21.2325 24.6758 20.7202 25.1655 20.2117 25.659C19.1452 26.6873 18.3443 27.459 20.2568 28.719C22.194 29.997 24.1492 31.2705 26.0392 32.6182C26.9707 33.2842 27.8078 33.8783 28.8428 33.786C29.4435 33.7298 30.0645 33.165 30.3795 31.4775C31.1265 27.495 32.5913 18.8595 32.9288 15.3C32.9483 15.0047 32.9355 14.7082 32.8905 14.4157C32.8639 14.1804 32.7499 13.9635 32.571 13.8083C32.301 13.5878 31.8848 13.5428 31.7003 13.545C30.8543 13.5608 29.556 14.0107 23.3078 16.6095" fill="white"/>
</svg>
