<svg width="68" height="90" viewBox="0 0 68 90" fill="none" xmlns="http://www.w3.org/2000/svg">
<path d="M0 1C0 0.447718 0.447715 0 1 0H67C67.5523 0 68 0.447715 68 1V88.4032C68 89.1414 67.2275 89.6251 66.5634 89.3028L34.4366 73.7119C34.1609 73.5781 33.8391 73.5781 33.5634 73.7119L1.4366 89.3028C0.772452 89.6251 0 89.1414 0 88.4032V1Z" fill="#212121"/>
<path d="M47.4286 40.5714H34.5714V53.4286C34.5714 54.1106 34.3005 54.7646 33.8183 55.2468C33.336 55.7291 32.682 56 32 56C31.318 56 30.664 55.7291 30.1817 55.2468C29.6995 54.7646 29.4286 54.1106 29.4286 53.4286V40.5714H16.5714C15.8894 40.5714 15.2354 40.3005 14.7532 39.8183C14.2709 39.336 14 38.682 14 38C14 37.318 14.2709 36.664 14.7532 36.1817C15.2354 35.6995 15.8894 35.4286 16.5714 35.4286H29.4286V22.5714C29.4286 21.8894 29.6995 21.2354 30.1817 20.7532C30.664 20.2709 31.318 20 32 20C32.682 20 33.336 20.2709 33.8183 20.7532C34.3005 21.2354 34.5714 21.8894 34.5714 22.5714V35.4286H47.4286C48.1106 35.4286 48.7646 35.6995 49.2468 36.1817C49.7291 36.664 50 37.318 50 38C50 38.682 49.7291 39.336 49.2468 39.8183C48.7646 40.3005 48.1106 40.5714 47.4286 40.5714Z" fill="white"/>
</svg>
