<svg width="46" height="44" viewBox="0 0 46 44" fill="none" xmlns="http://www.w3.org/2000/svg">
<path fill-rule="evenodd" clip-rule="evenodd" d="M33.2222 0H12.7778C5.72082 0 0 5.47208 0 12.2222V31.7778C0 38.5279 5.72082 44 12.7778 44H33.2222C40.2791 44 46 38.5279 46 31.7778V12.2222C46 5.47208 40.2791 0 33.2222 0ZM41.5278 31.7778C41.5137 36.1597 37.8033 39.7088 33.2222 39.7222H12.7778C8.19656 39.7088 4.48625 36.1597 4.47222 31.7778V12.2222C4.48625 7.84019 8.19656 4.2912 12.7778 4.27778H33.2222C37.8033 4.2912 41.5137 7.84019 41.5278 12.2222V31.7778ZM35.1389 12.8333C36.5503 12.8333 37.6944 11.7389 37.6944 10.3889C37.6944 9.03887 36.5503 7.94444 35.1389 7.94444C33.7275 7.94444 32.5833 9.03887 32.5833 10.3889C32.5833 11.7389 33.7275 12.8333 35.1389 12.8333ZM23 11C16.6487 11 11.5 15.9249 11.5 22C11.5 28.0752 16.6487 33 23 33C29.3513 33 34.5 28.0752 34.5 22C34.5069 19.0806 33.2974 16.2789 31.1392 14.2146C28.981 12.1503 26.0521 10.9935 23 11ZM15.9722 22C15.9722 25.7126 19.1186 28.7222 23 28.7222C26.8814 28.7222 30.0278 25.7126 30.0278 22C30.0278 18.2874 26.8814 15.2778 23 15.2778C19.1186 15.2778 15.9722 18.2874 15.9722 22Z" fill="#989898"/>
</svg>
