<svg width="55" height="53" viewBox="0 0 55 53" fill="none" xmlns="http://www.w3.org/2000/svg">
<g filter="url(#filter0_d_2069_6)">
<path fill-rule="evenodd" clip-rule="evenodd" d="M7.91667 0C5.75354 0 4 1.67892 4 3.75V41.25C4 43.321 5.75354 45 7.91667 45H47.0833C49.2464 45 51 43.321 51 41.25V3.75C51 1.67892 49.2464 0 47.0833 0H7.91667ZM18.4153 10.0068C18.43 12.3974 16.561 13.8705 14.3432 13.8599C12.2539 13.8494 10.4327 12.2568 10.4437 10.0103C10.4547 7.89742 12.1988 6.19938 14.4644 6.2486C16.763 6.29783 18.43 7.9115 18.4153 10.0068ZM28.2303 16.9044H21.6504H21.6467V38.304H28.6011V37.8047C28.6011 36.855 28.6003 35.905 28.5995 34.9547C28.5974 32.4202 28.5951 29.883 28.6087 27.3492C28.6123 26.734 28.6416 26.0942 28.8069 25.507C29.4273 23.3132 31.4874 21.8965 33.786 22.2447C35.262 22.466 36.2386 23.2852 36.6499 24.6177C36.9034 25.4507 37.0172 26.3472 37.0282 27.2157C37.058 29.8347 37.0538 32.4537 37.0496 35.073C37.048 35.9975 37.0465 36.9225 37.0465 37.847V38.3005H44.0231V37.7872C44.0231 36.6572 44.0226 35.5275 44.0218 34.3977C44.0205 31.574 44.0189 28.7502 44.0268 25.9255C44.0304 24.6493 43.8873 23.3907 43.5604 22.1567C43.0721 20.3215 42.0624 18.8027 40.4211 17.706C39.257 16.9255 37.9792 16.4228 36.5509 16.3665C36.3882 16.36 36.2242 16.3515 36.0595 16.343C35.3292 16.3052 34.5868 16.2668 33.8886 16.4016C31.8911 16.7848 30.1362 17.6602 28.8105 19.2035C28.6565 19.3805 28.5058 19.5602 28.281 19.8285L28.2303 19.8892V16.9044ZM11.0021 38.311H17.9235V16.9183H11.0021V38.311Z" fill="#989898"/>
</g>
<defs>
<filter id="filter0_d_2069_6" x="0" y="0" width="55" height="53" filterUnits="userSpaceOnUse" color-interpolation-filters="sRGB">
<feFlood flood-opacity="0" result="BackgroundImageFix"/>
<feColorMatrix in="SourceAlpha" type="matrix" values="0 0 0 0 0 0 0 0 0 0 0 0 0 0 0 0 0 0 127 0" result="hardAlpha"/>
<feOffset dy="4"/>
<feGaussianBlur stdDeviation="2"/>
<feComposite in2="hardAlpha" operator="out"/>
<feColorMatrix type="matrix" values="0 0 0 0 0 0 0 0 0 0 0 0 0 0 0 0 0 0 0.25 0"/>
<feBlend mode="normal" in2="BackgroundImageFix" result="effect1_dropShadow_2069_6"/>
<feBlend mode="normal" in="SourceGraphic" in2="effect1_dropShadow_2069_6" result="shape"/>
</filter>
</defs>
</svg>
