<svg width="51" height="67" viewBox="0 0 51 67" fill="none" xmlns="http://www.w3.org/2000/svg">
<path d="M0 0.999999C0 0.447714 0.447715 0 1 0H49.6222C50.1745 0 50.6222 0.447715 50.6222 1V65.4032C50.6222 66.1414 49.8498 66.6251 49.1856 66.3028L25.7477 54.9285C25.472 54.7948 25.1502 54.7948 24.8745 54.9285L1.4366 66.3028C0.772451 66.6251 0 66.1414 0 65.4032V0.999999Z" fill="#212121"/>
<path d="M35.3076 30.2032H25.7362V39.7746C25.7362 40.2823 25.5345 40.7692 25.1755 41.1282C24.8165 41.4872 24.3296 41.6889 23.8219 41.6889C23.3142 41.6889 22.8273 41.4872 22.4683 41.1282C22.1093 40.7692 21.9076 40.2823 21.9076 39.7746V30.2032H12.3362C11.8285 30.2032 11.3416 30.0015 10.9826 29.6425C10.6236 29.2835 10.4219 28.7966 10.4219 28.2889C10.4219 27.7812 10.6236 27.2943 10.9826 26.9353C11.3416 26.5763 11.8285 26.3746 12.3362 26.3746H21.9076V16.8032C21.9076 16.2955 22.1093 15.8086 22.4683 15.4496C22.8273 15.0906 23.3142 14.8889 23.8219 14.8889C24.3296 14.8889 24.8165 15.0906 25.1755 15.4496C25.5345 15.8086 25.7362 16.2955 25.7362 16.8032V26.3746H35.3076C35.8153 26.3746 36.3022 26.5763 36.6612 26.9353C37.0202 27.2943 37.2219 27.7812 37.2219 28.2889C37.2219 28.7966 37.0202 29.2835 36.6612 29.6425C36.3022 30.0015 35.8153 30.2032 35.3076 30.2032Z" fill="#173ECC"/>
</svg>
